<svg width="50" height="51" viewBox="0 0 50 51" fill="none" xmlns="http://www.w3.org/2000/svg">
<path d="M25 47.8671C37.3688 47.8671 47.3958 37.8401 47.3958 25.4712C47.3958 13.1023 37.3688 3.07538 25 3.07538C12.6311 3.07538 2.60413 13.1023 2.60413 25.4712C2.60413 37.8401 12.6311 47.8671 25 47.8671Z" stroke="#F8F8F8" stroke-linecap="round" stroke-linejoin="round"/>
<path d="M33.625 31.4087C34.7844 30.9399 36.8458 30.317 37.4667 31.0691C38.1375 31.8826 37.2896 33.6493 36.5083 35.0212" stroke="#F8F8F8" stroke-linecap="round" stroke-linejoin="round"/>
<path d="M12.2896 31.9535C14.1219 33.4087 19.5334 35.6358 25.298 35.6358C29.0802 35.7249 32.7916 34.6006 35.8886 32.4275M21.2542 21.4348V24.8723C21.2542 25.4248 21.4737 25.9547 21.8644 26.3454C22.2551 26.7361 22.785 26.9556 23.3375 26.9556C23.8901 26.9556 24.42 26.7361 24.8107 26.3454C25.2014 25.9547 25.4209 25.4248 25.4209 24.8723V21.4348M25.4209 24.8723V26.9556M10.8334 23.6223C10.8334 23.0697 11.0529 22.5398 11.4436 22.1491C11.8343 21.7584 12.3642 21.5389 12.9167 21.5389C13.4692 21.5389 13.9991 21.7584 14.3898 22.1491C14.7805 22.5398 15 23.0697 15 23.6223V26.9556M10.8334 21.5389V26.9556M15 23.6223C15 23.0697 15.2195 22.5398 15.6102 22.1491C16.0009 21.7584 16.5308 21.5389 17.0834 21.5389C17.6359 21.5389 18.1658 21.7584 18.5565 22.1491C18.9472 22.5398 19.1667 23.0697 19.1667 23.6223V26.9556" stroke="#F8F8F8" stroke-linecap="round" stroke-linejoin="round"/>
<path d="M33.2083 19.6118C33.611 19.6118 33.9375 19.2854 33.9375 18.8827C33.9375 18.48 33.611 18.1535 33.2083 18.1535C32.8056 18.1535 32.4791 18.48 32.4791 18.8827C32.4791 19.2854 32.8056 19.6118 33.2083 19.6118Z" fill="#F8F8F8"/>
<path d="M33.2083 21.4347V26.9555M27.6458 26.4847C28.1341 26.859 28.7499 27.0263 29.3604 26.9503H29.8271C30.1927 26.9498 30.5431 26.8041 30.8013 26.5453C31.0595 26.2865 31.2044 25.9357 31.2042 25.5701V25.5701C31.2044 25.2045 31.0595 24.8538 30.8013 24.595C30.5431 24.3362 30.1927 24.1905 29.8271 24.1899H28.8927C28.7116 24.1898 28.5324 24.154 28.3652 24.0845C28.1979 24.0151 28.0461 23.9133 27.9182 23.7852C27.7903 23.657 27.6889 23.5049 27.6198 23.3375C27.5508 23.1701 27.5154 22.9908 27.5156 22.8097V22.8097C27.5154 22.6286 27.5508 22.4493 27.6198 22.2819C27.6889 22.1145 27.7903 21.9624 27.9182 21.8342C28.0461 21.7061 28.1979 21.6044 28.3652 21.5349C28.5324 21.4655 28.7116 21.4296 28.8927 21.4295H29.3604C29.9704 21.3545 30.5853 21.5221 31.0729 21.8962M39.1667 25.9066C38.9843 26.2254 38.7209 26.4904 38.4031 26.6746C38.0854 26.8588 37.7246 26.9557 37.3573 26.9555C36.8048 26.9555 36.2749 26.736 35.8842 26.3453C35.4935 25.9546 35.274 25.4247 35.274 24.8722V23.518C35.274 22.9655 35.4935 22.4356 35.8842 22.0449C36.2749 21.6542 36.8048 21.4347 37.3573 21.4347C37.7239 21.4345 38.0842 21.5311 38.4015 21.7147C38.7189 21.8984 38.9821 22.1625 39.1646 22.4805" stroke="#F8F8F8" stroke-linecap="round" stroke-linejoin="round"/>
</svg>
