<svg width="216" height="1124" viewBox="0 0 216 1124" fill="none" xmlns="http://www.w3.org/2000/svg">
<g clip-path="url(#clip0_116_35)">
<circle cx="126.5" cy="998.5" r="14.5" fill="#B8B8B8"/>
<path d="M145 998C145 1008.49 136.493 1017 126 1017C115.507 1017 107 1008.49 107 998C107 987.507 115.507 979 126 979C136.493 979 145 987.507 145 998ZM115.495 998C115.495 1003.8 120.198 1008.51 126 1008.51C131.802 1008.51 136.505 1003.8 136.505 998C136.505 992.198 131.802 987.495 126 987.495C120.198 987.495 115.495 992.198 115.495 998Z" fill="#2A304A"/>
<line x1="2.50012" y1="1.09278e-07" x2="2.50003" y2="2206" stroke="#516674" stroke-width="5"/>
</g>
<defs>
<clipPath id="clip0_116_35">
<rect width="216" height="1124" fill="white"/>
</clipPath>
</defs>
</svg>
