<svg width="50" height="51" viewBox="0 0 50 51" fill="none" xmlns="http://www.w3.org/2000/svg">
<path d="M36.8333 15.5129V18.4295C36.8333 19.8462 35.6875 21.0129 34.2291 21.0129C32.7916 21.0129 31.625 19.8462 31.625 18.4295V15.5129C31.625 14.8222 31.8993 14.1598 32.3877 13.6715C32.8761 13.1831 33.5385 12.9087 34.2291 12.9087C35.6875 12.9087 36.8333 14.0754 36.8333 15.5129ZM27.6041 17.8879V33.0337C27.6041 33.7244 27.3298 34.3868 26.8414 34.8751C26.353 35.3635 25.6906 35.6379 25 35.6379C24.3093 35.6379 23.6469 35.3635 23.1585 34.8751C22.6702 34.3868 22.3958 33.7244 22.3958 33.0337V17.8879C22.3958 16.4712 23.5625 15.2837 25 15.2837C26.4375 15.2837 27.6041 16.4712 27.6041 17.8879ZM45.8333 24.0129V26.9295C45.8333 28.3462 44.6666 29.5129 43.2291 29.5129C41.7916 29.5129 40.625 28.3462 40.625 26.9295V24.0129C40.625 22.5754 41.7916 21.4295 43.2291 21.4295C44.6666 21.4295 45.8333 22.5754 45.8333 24.0129ZM9.37496 24.0129V26.9295C9.37496 28.3462 8.20829 29.5129 6.77079 29.5129C5.31246 29.5129 4.16663 28.3462 4.16663 26.9295V24.0129C4.16663 22.5754 5.31246 21.4295 6.77079 21.4295C8.20829 21.4295 9.37496 22.5754 9.37496 24.0129ZM18.375 32.5129V35.4087C18.375 36.8254 17.2083 37.9712 15.7708 37.9712C14.3333 37.9712 13.1666 36.8254 13.1666 35.4087V32.5129C13.1666 31.0545 14.3333 29.9087 15.7708 29.9087C16.4615 29.9087 17.1238 30.1831 17.6122 30.6715C18.1006 31.1598 18.375 31.8222 18.375 32.5129ZM27.6041 40.8046V43.7004C27.6041 44.391 27.3298 45.0534 26.8414 45.5418C26.353 46.0302 25.6906 46.3046 25 46.3046C24.3093 46.3046 23.6469 46.0302 23.1585 45.5418C22.6702 45.0534 22.3958 44.391 22.3958 43.7004V40.8046C22.3958 40.1139 22.6702 39.4515 23.1585 38.9631C23.6469 38.4747 24.3093 38.2004 25 38.2004C25.6906 38.2004 26.353 38.4747 26.8414 38.9631C27.3298 39.4515 27.6041 40.1139 27.6041 40.8046ZM27.6041 7.24205V10.1379C27.6041 10.8285 27.3298 11.4909 26.8414 11.9793C26.353 12.4677 25.6906 12.742 25 12.742C24.3093 12.742 23.6469 12.4677 23.1585 11.9793C22.6702 11.4909 22.3958 10.8285 22.3958 10.1379V7.24205C22.3958 5.78371 23.5625 4.63788 25 4.63788C25.6906 4.63788 26.353 4.91225 26.8414 5.40062C27.3298 5.889 27.6041 6.55138 27.6041 7.24205ZM36.8333 26.1795V35.4087C36.8333 36.8462 35.6875 37.9712 34.2291 37.9712C32.7916 37.9712 31.625 36.8462 31.625 35.4087V26.1795C31.625 24.7212 32.7916 23.5754 34.2291 23.5754C35.6875 23.5754 36.8333 24.7212 36.8333 26.1795ZM18.375 15.5129V24.742C18.375 26.2004 17.2083 27.3462 15.7708 27.3462C15.4288 27.3462 15.0902 27.2789 14.7742 27.148C14.4583 27.0171 14.1712 26.8253 13.9294 26.5835C13.6876 26.3417 13.4957 26.0546 13.3649 25.7386C13.234 25.4227 13.1666 25.084 13.1666 24.742V15.5129C13.1666 14.8222 13.441 14.1598 13.9294 13.6715C14.4177 13.1831 15.0801 12.9087 15.7708 12.9087C16.4615 12.9087 17.1238 13.1831 17.6122 13.6715C18.1006 14.1598 18.375 14.8222 18.375 15.5129Z" fill="#F8F8F8"/>
</svg>
