<svg width="24" height="24" viewBox="0 0 24 24" fill="none" xmlns="http://www.w3.org/2000/svg">
<g clip-path="url(#clip0_40_106)">
<path d="M10.5 22.495C10.5 22.496 10.5 22.498 10.5 22.5C10.5 23.328 11.172 24 12 24C12.827 24 13.497 23.331 13.5 22.505V20.865C13.5 20.045 12.83 19.365 12 19.365V19.355C11.17 19.355 10.5 20.025 10.5 20.855V22.495ZM10.5 16.357C10.5 17.185 11.172 17.857 12 17.857C12.828 17.857 13.5 17.185 13.5 16.357V7.638C13.5 6.808 12.83 6.138 12 6.138V6.128C11.17 6.128 10.5 6.808 10.5 7.628V16.357ZM18.82 12.397C18.82 11.567 18.15 10.897 17.32 10.897C16.49 10.897 15.82 11.577 15.82 12.397V17.726C15.82 18.554 16.492 19.226 17.32 19.226C18.148 19.226 18.82 18.554 18.82 17.726V12.397ZM5.18 17.716C5.18 18.544 5.852 19.216 6.68 19.216C7.508 19.216 8.18 18.544 8.18 17.716V16.096C8.18 15.266 7.51 14.596 6.68 14.596V14.586C5.85 14.586 5.18 15.256 5.18 16.086V17.716ZM12 4.629C12.828 4.629 13.5 3.957 13.5 3.129V1.5C13.5 0.67 12.83 0 12 0C11.17 0 10.5 0.67 10.5 1.5V3.13C10.5 3.957 11.172 4.629 12 4.629ZM6.68 13.127C7.508 13.127 8.18 12.455 8.18 11.627V6.259C8.18 5.429 7.51 4.759 6.68 4.759V4.769C5.85 4.769 5.18 5.439 5.18 6.269V11.628C5.18 12.455 5.852 13.127 6.68 13.127ZM18.82 6.269C18.82 5.439 18.15 4.769 17.32 4.769C16.49 4.769 15.82 5.439 15.82 6.269V7.909C15.82 8.737 16.492 9.409 17.32 9.409C18.148 9.409 18.82 8.737 18.82 7.909V6.269ZM22.5 9.678C21.67 9.678 21 10.348 21 11.178V12.808C21 13.636 21.672 14.308 22.5 14.308C23.328 14.308 24 13.636 24 12.808V11.178C24 10.348 23.33 9.678 22.5 9.678ZM1.5 14.307C2.328 14.307 3 13.635 3 12.807V11.177C3 10.347 2.33 9.677 1.5 9.677C0.67 9.677 0 10.347 0 11.177V12.807C0 13.635 0.672 14.307 1.5 14.307Z" fill="black"/>
</g>
<defs>
<clipPath id="clip0_40_106">
<rect width="24" height="24" fill="white"/>
</clipPath>
</defs>
</svg>
