<svg width="136" height="43" viewBox="0 0 136 43" fill="none" xmlns="http://www.w3.org/2000/svg">
<path d="M10.528 9.144H0.448V0.759998H30.144V9.144H20.096V43H10.528V9.144ZM35.633 0.759998H45.201V43H35.633V0.759998ZM97.5855 0.759998V43H88.0495V18.136L88.4655 11.064L86.8335 19.16L79.7295 39.608H70.3535L63.2815 19.16L61.6815 11.064L62.0975 18.136V43H52.5295V0.759998H65.9695L74.4815 28.952L75.0575 32.312L75.6335 28.952L84.1455 0.759998H97.5855ZM105.475 0.759998H119.971C122.381 0.759998 124.611 1.09067 126.659 1.752C128.728 2.41333 130.392 3.50133 131.651 5.016C132.931 6.50933 133.571 8.536 133.571 11.096C133.571 12.7813 133.251 14.2853 132.611 15.608C131.992 16.9307 131.16 18.0187 130.115 18.872C129.091 19.704 127.971 20.2587 126.755 20.536C127.821 20.664 128.856 20.9733 129.859 21.464C130.883 21.9333 131.8 22.5947 132.611 23.448C133.443 24.28 134.093 25.3253 134.562 26.584C135.053 27.8213 135.299 29.2933 135.299 31C135.299 33.368 134.765 35.4587 133.699 37.272C132.653 39.064 131.117 40.472 129.091 41.496C127.085 42.4987 124.621 43 121.699 43H105.475V0.759998ZM115.043 35.352H119.395C120.76 35.352 121.869 35.1493 122.723 34.744C123.597 34.3173 124.237 33.72 124.643 32.952C125.048 32.1627 125.251 31.224 125.251 30.136C125.251 28.4293 124.717 27.1813 123.651 26.392C122.605 25.5813 121.133 25.176 119.235 25.176H115.043V35.352ZM115.043 17.688H118.915C120.045 17.688 120.984 17.4853 121.731 17.08C122.499 16.6747 123.075 16.1093 123.459 15.384C123.864 14.6373 124.067 13.784 124.067 12.824C124.067 11.096 123.576 9.93333 122.595 9.336C121.613 8.71733 120.269 8.408 118.562 8.408H115.043V17.688Z" fill="#FAF3C9"/>
</svg>
