<svg width="24" height="24" viewBox="0 0 24 24" fill="none" xmlns="http://www.w3.org/2000/svg">
<g clip-path="url(#clip0_40_104)">
<path d="M12 0C5.3835 0 0 5.3835 0 12C0 18.6165 5.3835 24 12 24C18.6165 24 24 18.6165 24 12C24 5.3835 18.6165 0 12 0ZM17.505 17.322C17.4486 17.4027 17.3767 17.4714 17.2937 17.5243C17.2106 17.5772 17.118 17.6131 17.021 17.6301C16.924 17.6471 16.8246 17.6448 16.7285 17.6233C16.6324 17.6019 16.5415 17.5617 16.461 17.505C13.6485 15.528 8.97 15.4185 5.811 16.155C5.71497 16.1773 5.6155 16.1804 5.51826 16.1642C5.42102 16.148 5.32793 16.1128 5.24428 16.0607C5.16064 16.0085 5.08809 15.9404 5.03078 15.8602C4.97346 15.78 4.93251 15.6893 4.91025 15.5933C4.88799 15.4972 4.88486 15.3977 4.90105 15.3005C4.91723 15.2033 4.95241 15.1102 5.00457 15.0265C5.05674 14.9429 5.12486 14.8703 5.20507 14.813C5.28527 14.7557 5.37597 14.7148 5.472 14.6925C8.9445 13.8885 14.1345 14.0355 17.322 16.278C17.4846 16.3923 17.5952 16.5664 17.6295 16.7621C17.6638 16.9579 17.619 17.1592 17.505 17.322ZM18.969 14.3955C18.9115 14.4755 18.8388 14.5434 18.755 14.5953C18.6713 14.6471 18.5782 14.682 18.4809 14.6979C18.3837 14.7138 18.2843 14.7104 18.1884 14.6878C18.0925 14.6653 18.002 14.624 17.922 14.5665C14.6595 12.225 10.6515 11.643 5.3025 12.735C5.20598 12.7548 5.1065 12.7554 5.00975 12.7367C4.913 12.7181 4.82087 12.6806 4.73862 12.6263C4.65637 12.5721 4.58562 12.5021 4.53039 12.4205C4.47516 12.3389 4.43655 12.2473 4.41675 12.1508C4.39695 12.0542 4.39636 11.9548 4.41501 11.858C4.43366 11.7613 4.47118 11.6691 4.52543 11.5869C4.57968 11.5046 4.6496 11.4339 4.7312 11.3786C4.8128 11.3234 4.90448 11.2848 5.001 11.265C10.7865 10.0845 15.1695 10.7445 18.7965 13.347C18.9581 13.4634 19.0669 13.6391 19.0992 13.8356C19.1316 14.0321 19.0847 14.2334 18.969 14.3955ZM20.448 10.4655C20.3927 10.5471 20.3218 10.617 20.2395 10.6712C20.1572 10.7254 20.0649 10.7628 19.9681 10.7814C19.8713 10.7999 19.7718 10.7992 19.6752 10.7792C19.5787 10.7592 19.487 10.7204 19.4055 10.665C15.27 7.8585 8.9835 7.845 4.914 9.285C4.82102 9.3178 4.7225 9.33196 4.62405 9.32668C4.5256 9.3214 4.42915 9.29678 4.34022 9.25423C4.25128 9.21168 4.1716 9.15203 4.10572 9.07868C4.03984 9.00533 3.98905 8.91973 3.95625 8.82675C3.92345 8.73377 3.90929 8.63525 3.91457 8.5368C3.91985 8.43835 3.94447 8.3419 3.98702 8.25297C4.02957 8.16403 4.08922 8.08435 4.16257 8.01847C4.23592 7.95259 4.32152 7.9018 4.4145 7.869C8.841 6.3045 15.7005 6.3375 20.25 9.423C20.4139 9.53545 20.5267 9.70815 20.5638 9.90345C20.6009 10.0987 20.5593 10.3008 20.448 10.4655Z" fill="black"/>
</g>
<defs>
<clipPath id="clip0_40_104">
<rect width="24" height="24" fill="white"/>
</clipPath>
</defs>
</svg>
