<svg width="50" height="51" viewBox="0 0 50 51" fill="none" xmlns="http://www.w3.org/2000/svg">
<g clip-path="url(#clip0_23_208)">
<mask id="mask0_23_208" style="mask-type:alpha" maskUnits="userSpaceOnUse" x="0" y="0" width="50" height="51">
<path d="M0 0.471191H50V50.4712H0V0.471191Z" fill="white"/>
</mask>
<g mask="url(#mask0_23_208)">
<path d="M24.9896 0.471191C11.2104 0.471191 0 11.6837 0 25.4629C0 39.2545 11.2104 50.4712 24.9896 50.4712C38.7812 50.4712 50 39.2524 50 25.4629C50 11.6837 38.7812 0.471191 24.9896 0.471191ZM12.3083 34.6462C15.1696 33.7697 18.145 33.3218 21.1375 33.317C26.1667 33.317 31.1312 34.592 35.4958 37.0045C35.7562 37.1462 35.9917 37.6129 36.1 38.1962C36.2042 38.7795 36.1625 39.3774 35.9917 39.6879C35.9112 39.8355 35.8021 39.9657 35.6709 40.0709C35.5397 40.1761 35.389 40.2543 35.2273 40.3008C35.0657 40.3473 34.8965 40.3612 34.7294 40.3419C34.5624 40.3225 34.4008 40.2701 34.2542 40.1879C31.0483 38.4292 27.5219 37.3323 23.8842 36.9623C20.2464 36.5922 16.5714 36.9566 13.0771 38.0337C12.9167 38.0856 12.7475 38.105 12.5795 38.0909C12.4115 38.0767 12.248 38.0293 12.0986 37.9514C11.9491 37.8734 11.8166 37.7665 11.7088 37.6369C11.601 37.5072 11.5201 37.3574 11.4708 37.1962C11.2479 36.467 11.7083 34.842 12.3083 34.6462ZM11.2188 25.4379C14.4511 24.5597 17.7859 24.1148 21.1354 24.1149C27.1646 24.1149 33.15 25.5733 38.4479 28.3358C38.8208 28.5233 39.0938 28.8441 39.2188 29.2358C39.2819 29.4336 39.3049 29.642 39.2863 29.8488C39.2677 30.0556 39.2079 30.2566 39.1104 30.4399C38.6375 31.3649 38.0833 31.9879 37.7354 31.9879C37.4816 31.9867 37.2317 31.9253 37.0062 31.8087C32.1088 29.2518 26.6622 27.9261 21.1375 27.9462C18.0644 27.94 15.0047 28.35 12.0417 29.1649C11.844 29.219 11.6376 29.2335 11.4343 29.2078C11.231 29.1821 11.0348 29.1166 10.8568 29.015C10.6788 28.9135 10.5226 28.7778 10.397 28.6159C10.2715 28.4539 10.179 28.2689 10.125 28.0712C9.89167 27.192 10.4271 25.6545 11.2188 25.4379ZM10.9375 19.4254C10.703 19.4855 10.4589 19.4987 10.2193 19.464C9.97972 19.4294 9.74935 19.3476 9.54152 19.2235C9.33369 19.0993 9.15251 18.9352 9.00843 18.7407C8.86435 18.5461 8.76023 18.3249 8.70208 18.0899C8.44583 17.0524 9.09375 15.8483 10.0354 15.6108C13.6677 14.7161 17.3946 14.2622 21.1354 14.2587C28.3229 14.2587 35.2104 15.8754 41.6021 19.0649C42.0412 19.2833 42.3757 19.6671 42.532 20.132C42.6882 20.5969 42.6535 21.1048 42.4354 21.5441C42.1375 22.1441 41.4917 22.7899 40.7792 22.7899C40.4998 22.7889 40.2239 22.7271 39.9708 22.6087C34.1262 19.6767 27.6742 18.1595 21.1354 18.1795C17.7292 18.1795 14.2979 18.5983 10.9375 19.4254Z" fill="#F8F8F8"/>
</g>
</g>
<defs>
<clipPath id="clip0_23_208">
<rect width="50" height="50" fill="white" transform="translate(0 0.471191)"/>
</clipPath>
</defs>
</svg>
